<?xml version="1.0" encoding="utf-8"?>
<!-- Generator: Adobe Illustrator 23.0.4, SVG Export Plug-In . SVG Version: 6.00 Build 0)  -->
<svg version="1.1" id="Layer_1" xmlns="http://www.w3.org/2000/svg" xmlns:xlink="http://www.w3.org/1999/xlink" x="0px" y="0px"
	 viewBox="0 0 600 600" style="enable-background:new 0 0 600 600;" xml:space="preserve">
<style type="text/css">
	.st0{fill:#FFFFFF;}
</style>
<g>
	<g>
		<path class="st0" d="M188.52,232.63c6.02,9.57,11.99,23.37,22.64,28.75c11.34,5.73,24.82-2.48,35.15-7.04
			c2.94-1.3,0.4-5.61-2.52-4.32c-9.28,4.1-22.7,12.48-32.45,5.65c-8.26-5.78-13.28-17.27-18.5-25.57
			C191.13,227.39,186.8,229.89,188.52,232.63L188.52,232.63z"/>
	</g>
</g>
<g>
	<g>
		<path class="st0" d="M286.45,259.96c1.68-9.67,3.65-19.73,8.88-28.2c5.89-9.54,15.76-14.48,26.78-15.14
			c19.38-1.16,42.64,7.82,51.07,26.32c1.33,2.92,5.64,0.39,4.32-2.52c-9.31-20.42-35.56-30.58-56.93-28.68
			c-10.6,0.94-20.43,5.35-27.03,13.88c-7.31,9.44-9.9,21.51-11.91,33.02C281.08,261.78,285.9,263.13,286.45,259.96L286.45,259.96z"
			/>
	</g>
</g>
<g>
	<g>
		<path class="st0" d="M287.1,260.99c3.2-7.35,13.01-9.55,20.04-11.51c8.12-2.26,16.48-3.56,24.9-3.88
			c16.9-0.65,33.76,2.59,49.19,9.5c2.91,1.3,5.46-3,2.52-4.32c-17.3-7.75-36.22-11.3-55.17-10c-9.13,0.63-18.2,2.31-26.92,5.12
			c-7.17,2.31-15.65,5.11-18.89,12.56C281.51,261.39,285.82,263.94,287.1,260.99L287.1,260.99z"/>
	</g>
</g>
<g>
	<g>
		<path class="st0" d="M335.7,241.58c-0.49-6.15-2.93-21.34-12.54-18.59c-8.86,2.54-5.15,15.07-1.23,20c2,2.52,5.52-1.04,3.54-3.54
			c-1.53-1.92-2.52-4.22-2.74-6.67c-0.15-1.69,0.31-5.96,3.06-4.76c4.16,1.81,4.61,9.85,4.9,13.56
			C330.95,244.77,335.95,244.79,335.7,241.58L335.7,241.58z"/>
	</g>
</g>
<g>
	<g>
		<path class="st0" d="M246.68,205.27c4.1,19.28,3.86,38.96,2.58,58.53c-0.63,9.65-1.51,19.28-2.21,28.92
			c-0.64,8.69-1.53,17.55-0.48,26.24c1.6,13.32,9.79,27.27,24.59,27.95c14.95,0.69,25.57-11.56,29.7-24.72
			c0.97-3.08-3.86-4.39-4.82-1.33c-4.21,13.41-19.11,27.92-33.69,18.11c-13.24-8.91-11.55-27.63-10.63-41.44
			c2.07-31.2,6.37-62.63-0.21-93.6C250.84,200.8,246.02,202.13,246.68,205.27L246.68,205.27z"/>
	</g>
</g>
<g>
	<g>
		<path class="st0" d="M169.6,188.66c2.19,70.44-10.09,150.35,37.15,209.76c21.24,26.72,53.11,41.4,86.99,43.05
			c33.42,1.63,66.75-10.28,88.02-36.79c25.89-32.27,30.76-74.6,32.45-114.53c0.14-3.22-4.86-3.21-5,0
			c-1.49,35.03-5.18,71.57-24.48,101.84c-18.18,28.51-48.56,43.86-82.07,44.61c-33.41,0.75-66.3-11.82-88.54-37.11
			c-20.07-22.83-30.87-52.78-35.67-82.44c-6.86-42.42-2.53-85.66-3.86-128.39C174.5,185.45,169.5,185.43,169.6,188.66L169.6,188.66z
			"/>
	</g>
</g>
<g>
	<g>
		<path class="st0" d="M217.21,82.55c-26.71,4.53-55.52,13.54-72.83,35.78c-17.73,22.77-22.31,58.41-6.73,83.36
			c7.21,11.55,17.55,20.16,31.82,19.22c3.19-0.21,3.22-5.21,0-5c-16.53,1.09-27.74-13.21-32.87-27.5
			c-6.01-16.75-3.68-36.46,3.24-52.58c13.47-31.35,47.51-43.16,78.71-48.45C221.71,86.84,220.36,82.02,217.21,82.55L217.21,82.55z"
			/>
	</g>
</g>
<g>
	<g>
		<path class="st0" d="M114.26,183.32c5.23,12.75,12.76,24.4,22.65,34.05c9.22,9,21.09,17.23,34.6,15.53c3.15-0.4,3.19-5.4,0-5
			c-12.81,1.61-23.7-6.6-32.24-15.24c-8.68-8.78-15.5-19.26-20.18-30.67C117.88,179.05,113.04,180.34,114.26,183.32L114.26,183.32z"
			/>
	</g>
</g>
<g>
	<g>
		<path class="st0" d="M249.3,81.31c11.76-4.81,24.51-5.72,37.08-6.25c12.39-0.53,24.83-0.27,37.18,0.98
			c24.48,2.48,49.1,8.96,70.62,21.13c10.97,6.2,20.52,14.26,27.48,24.84c7,10.65,11.37,22.73,14.4,35.05
			c6.31,25.56,9.87,52.84,10.12,79.16c0.26,28.24-5.09,56.85-20.57,80.88c-1.75,2.71,2.58,5.22,4.32,2.52
			c29.62-45.95,23.22-105.79,12.59-156.69c-5.13-24.58-14.96-48.32-35.74-63.61c-20.61-15.16-46.98-23.15-72.01-26.88
			c-14.25-2.12-28.66-2.9-43.06-2.56c-14.63,0.35-30.02,1.01-43.72,6.61C245.03,77.69,246.32,82.53,249.3,81.31L249.3,81.31z"/>
	</g>
</g>
<g>
	<g>
		<path class="st0" d="M442.28,306.33c-5.81,36.79-11.77,89.4-55.31,100.53c-3.12,0.8-1.8,5.62,1.33,4.82
			c18.26-4.67,33.09-19.08,41.75-35.44c4.94-9.33,7.62-19.77,10-30c2.97-12.74,5.01-25.67,7.05-38.59
			C447.6,304.51,442.78,303.16,442.28,306.33L442.28,306.33z"/>
	</g>
</g>
<g>
	<g>
		<path class="st0" d="M216.18,158.16c-3.03-8.91-3.59-18.46,2.87-26c4.91-5.73,11.94-9.24,18.57-12.57
			c2.88-1.44,0.35-5.76-2.52-4.32c-8.01,4.02-16.48,8.49-21.7,16.06c-5.83,8.45-5.21,18.81-2.04,28.15
			C212.39,162.52,217.22,161.22,216.18,158.16L216.18,158.16z"/>
	</g>
</g>
<g>
	<g>
		<path class="st0" d="M237.46,146.1c-5.32-12,18.32-21.01,26.29-24.1c11.43-4.44,23.7-6.55,35.86-4.29
			c3.15,0.58,4.49-4.23,1.33-4.82c-15.72-2.92-31.25,0.6-45.56,7.3c-10.57,4.95-28.71,13.85-22.24,28.44
			C234.45,151.55,238.76,149.01,237.46,146.1L237.46,146.1z"/>
	</g>
</g>
<g>
	<g>
		<path class="st0" d="M262.06,140.19c-0.08-1.42,2.4-3.18,3.48-3.86c1.27-0.8,2.95-1.27,4.35-1.81c2.5-0.96,5.05-1.77,7.63-2.51
			c4.88-1.4,9.85-2.45,14.85-3.32c10.03-1.76,20.92-4.19,31.1-2.86c3.18,0.42,3.15-4.59,0-5c-6.42-0.84-12.73,0.15-19.1,1.02
			c-6.82,0.94-13.64,1.93-20.38,3.39c-6.41,1.39-12.7,3.24-18.75,5.79c-4.1,1.73-8.49,4.11-8.19,9.16
			C257.25,143.39,262.25,143.41,262.06,140.19L262.06,140.19z"/>
	</g>
</g>
<g>
	<g>
		<path class="st0" d="M233.34,378.68c11.23,16.04,30.89,23.69,50.12,22.69c22.63-1.18,42.79-13.56,59.38-28.15
			c2.42-2.13-1.13-5.65-3.54-3.54c-15.2,13.36-33.74,25.04-54.42,26.6c-17.79,1.34-36.73-5.13-47.24-20.13
			C235.82,373.54,231.49,376.03,233.34,378.68L233.34,378.68z"/>
	</g>
</g>
<g>
	<g>
		<path class="st0" d="M377.33,206.68c-0.08-13.28-11.3-22.86-23.82-24.74c-16.54-2.49-31.71,5.89-46.86,11.04
			c-3.03,1.03-1.73,5.86,1.33,4.82c12.3-4.18,24.38-10.7,37.59-11.28c12.32-0.54,26.67,6.1,26.76,20.15
			C372.35,209.89,377.35,209.9,377.33,206.68L377.33,206.68z"/>
	</g>
</g>
<g>
	<g>
		<path class="st0" d="M232.36,198.21c-4.93-3.27-9.97-6.37-15.15-9.24c-4.28-2.37-9.11-5.62-14.12-6.04
			c-8.86-0.76-14.69,7.36-18.71,14.09c-1.65,2.77,2.67,5.29,4.32,2.52c4.4-7.36,9.8-14.34,19.06-9.92c7.67,3.66,15,8.22,22.07,12.9
			C232.52,204.31,235.03,199.98,232.36,198.21L232.36,198.21z"/>
	</g>
</g>
<g>
	<g>
		<path class="st0" d="M384.19,400.27c5.52,35.19,11.05,70.38,16.57,105.57c0.5,3.17,5.32,1.82,4.82-1.33
			c-5.52-35.19-11.05-70.38-16.57-105.57C388.51,395.78,383.69,397.12,384.19,400.27L384.19,400.27z"/>
	</g>
</g>
<g>
	<g>
		<path class="st0" d="M281.7,440.08c3.14,21.28,5.85,42.62,8.15,64c0.34,3.17,5.34,3.2,5,0c-2.35-21.83-5.13-43.61-8.33-65.33
			C286.06,435.58,281.24,436.93,281.7,440.08L281.7,440.08z"/>
	</g>
</g>
<g>
	<g>
		<path class="st0" d="M293.09,503.62c-57.78,3.21-115.12,12.43-170.99,27.52c-3.1,0.84-1.79,5.66,1.33,4.82
			c55.45-14.98,112.32-24.16,169.66-27.35C296.29,508.44,296.31,503.44,293.09,503.62L293.09,503.62z"/>
	</g>
</g>
<g>
	<g>
		<path class="st0" d="M121.52,531.68c-36.54,24.97-67.59,57.27-91.05,94.81c-1.71,2.74,2.61,5.25,4.32,2.52
			c23-36.79,53.44-68.53,89.26-93.01C126.69,534.19,124.19,529.86,121.52,531.68L121.52,531.68z"/>
	</g>
</g>
<g>
	<g>
		<path class="st0" d="M404.68,507.77c40.27,4.5,80.53,8.99,120.8,13.49c10.15,1.13,20.3,2.27,30.45,3.4
			c4.4,0.49,9.17,0.6,13.17,2.73c4.09,2.18,7.21,6.15,10.28,9.52c13.29,14.58,25.7,29.93,37.22,45.94c1.86,2.59,6.2,0.09,4.32-2.52
			c-9.04-12.56-18.59-24.75-28.7-36.47c-4.86-5.63-9.69-11.54-15.12-16.63c-4.58-4.29-9.51-6.19-15.68-6.96
			c-33.2-4.1-66.52-7.43-99.76-11.14c-18.99-2.12-37.98-4.24-56.96-6.36C401.49,502.42,401.51,507.42,404.68,507.77L404.68,507.77z"
			/>
	</g>
</g>
<g>
	<g>
		<path class="st0" d="M196.2,242.54c-5.89,1.21-11.63,2.86-17.27,4.96c-2.99,1.11-1.7,5.95,1.33,4.82
			c5.63-2.1,11.38-3.75,17.27-4.96C200.68,246.71,199.35,241.89,196.2,242.54L196.2,242.54z"/>
	</g>
</g>
<g>
	<g>
		<path class="st0" d="M201.83,248.43c-5.04,0.76-9.79,2.42-14.26,4.88c-2.82,1.55-0.3,5.87,2.52,4.32
			c4.1-2.26,8.43-3.68,13.06-4.38C206.33,252.78,204.99,247.96,201.83,248.43L201.83,248.43z"/>
	</g>
</g>
<g>
	<g>
		<path class="st0" d="M363.02,225.54c3.81-1.89,7.72-3.51,11.74-4.9c3.02-1.04,1.72-5.88-1.33-4.82
			c-4.42,1.53-8.74,3.33-12.93,5.41C357.61,222.65,360.14,226.96,363.02,225.54L363.02,225.54z"/>
	</g>
</g>
<g>
	<g>
		<path class="st0" d="M370.35,232.99c4.35-1.61,8.77-2.94,13.29-3.99c3.13-0.73,1.81-5.55-1.33-4.82
			c-4.52,1.05-8.94,2.38-13.29,3.99C366.03,229.28,367.33,234.11,370.35,232.99L370.35,232.99z"/>
	</g>
</g>
<g>
	<g>
		<path class="st0" d="M289.81,504.14c5.05,22.62,13.84,44.34,26.1,64.02c5.85,9.39,12.45,18.48,19.87,26.7
			c6.83,7.56,14.9,14.11,24.99,16.47c3.13,0.73,4.47-4.09,1.33-4.82c-10.09-2.36-17.71-9.3-24.33-16.93
			c-7.23-8.33-13.65-17.38-19.32-26.84c-11.14-18.56-19.11-38.8-23.82-59.92C293.93,499.67,289.11,501,289.81,504.14L289.81,504.14z
			"/>
	</g>
</g>
<g>
	<g>
		<path class="st0" d="M402.08,505.41c-15.72,43.68-35.77,85.68-59.8,125.4c-1.67,2.76,2.65,5.28,4.32,2.52
			c24.25-40.09,44.44-82.51,60.31-126.6C408,503.71,403.17,502.4,402.08,505.41L402.08,505.41z"/>
	</g>
</g>
<g>
	<g>
		<path class="st0" d="M136.34,611.62c0-9.85-0.01-19.7-0.01-29.55c0-4.6,0-9.19-0.01-13.79c0-0.35-0.34-5.78,0-5.91
			c1.44-0.56,4.13,3.84,4.83,4.71c11.46,14,21.73,28.92,30.9,44.52c1.63,2.77,5.95,0.26,4.32-2.52
			c-5.72-9.73-11.85-19.2-18.46-28.35c-3.16-4.37-6.42-8.68-9.77-12.9c-2.7-3.4-5.86-9.02-9.97-10.85
			c-9.25-4.12-6.84,13.31-6.84,17.23c0.01,12.48,0.01,24.96,0.02,37.43C131.34,614.84,136.34,614.84,136.34,611.62L136.34,611.62z"
			/>
	</g>
</g>
<g>
	<g>
		<path class="st0" d="M219.58,604.64c0.82-21.97,1.65-43.94,2.47-65.91c-1.42,0.59-2.85,1.18-4.27,1.77
			c11.66,12.52,23.32,25.05,34.35,38.14c5.76,6.83,11.35,13.82,16.64,21.02c4.76,6.48,10.78,13.44,12.21,21.57
			c0.55,3.16,5.37,1.82,4.82-1.33c-1.42-8.08-6.92-14.8-11.63-21.28c-5.14-7.08-10.56-13.97-16.15-20.7
			c-11.71-14.1-24.21-27.53-36.7-40.95c-1.54-1.65-4.19-0.31-4.27,1.77c-0.82,21.97-1.65,43.94-2.47,65.91
			C214.46,607.86,219.46,607.85,219.58,604.64L219.58,604.64z"/>
	</g>
</g>
<g>
	<g>
		<path class="st0" d="M390.53,614.29c11.77-25.89,26.46-50.37,43.89-72.86c-1.31-0.17-2.62-0.34-3.93-0.51
			c17.46,28.74,30.63,59.79,39.15,92.32c0.81,3.11,5.64,1.79,4.82-1.33c-8.62-32.93-21.97-64.43-39.65-93.52
			c-0.75-1.23-2.9-1.82-3.93-0.51c-17.71,22.84-32.71,47.55-44.67,73.87C384.89,614.67,389.2,617.22,390.53,614.29L390.53,614.29z"
			/>
	</g>
</g>
<g>
	<g>
		<path class="st0" d="M522.79,619.55c0.67-11.33,2.81-22.47,6.49-33.21c1.89-5.53,4.18-10.91,6.85-16.11
			c1.17-2.28,5.96-13.28,8.7-12.63c1.71,0.41,4.7,5.95,5.72,7.28c1.64,2.15,3.25,4.32,4.83,6.5c3.34,4.62,6.57,9.32,9.68,14.1
			c6.38,9.81,12.23,19.96,17.59,30.36c1.48,2.86,5.79,0.33,4.32-2.52c-6.33-12.27-13.33-24.18-21.07-35.61
			c-4.04-5.96-8.27-11.79-12.67-17.49c-2.31-2.99-5.47-9.29-10.08-8.27c-4.42,0.98-7.34,8.45-9.3,11.95
			c-3.06,5.48-5.69,11.19-7.93,17.05c-4.72,12.38-7.36,25.4-8.14,38.61C517.6,622.76,522.6,622.75,522.79,619.55L522.79,619.55z"/>
	</g>
</g>
</svg>
