<?xml version="1.0" encoding="utf-8"?>
<!-- Generator: Adobe Illustrator 23.0.4, SVG Export Plug-In . SVG Version: 6.00 Build 0)  -->
<svg version="1.1" xmlns="http://www.w3.org/2000/svg" xmlns:xlink="http://www.w3.org/1999/xlink" x="0px" y="0px"
	 viewBox="0 0 600 600" style="enable-background:new 0 0 600 600;" xml:space="preserve">
<style type="text/css">
	.st0{display:none;}
	.st1{display:inline;fill:#372C37;}
	.st2{fill:#FFFFFF;}
	.st3{display:inline;}
</style>
<g id="dark_bg" class="st0">
	<rect x="0" y="0" class="st1" width="600" height="600"/>
</g>
<g id="logo_x5F_horizontal">
	<g>
		<path class="st2" d="M62.54,239.47h-10.8l-6.08,30.79c-0.14,0.54-0.14,1.48-0.14,1.62c0,2.43,1.62,3.38,4.19,3.38h6.62
			l-3.51,17.69h-9.86c-12.02,0-18.91-7.43-18.91-16.88c0-2.7,0.27-4.59,0.54-5.94l6.08-30.65h-6.35l3.24-16.34h6.35l4.19-20.8h21.07
			l-4.19,20.8h10.8L62.54,239.47z"/>
		<path class="st2" d="M113.19,242.72c-0.94-0.94-2.7-4.05-6.75-4.05c-4.86,0-9.86,3.92-11.21,10.8l-8.64,43.48H65.52l14.45-72.65
			h20.26l-1.22,6.21c3.78-4.32,10.4-7.02,17.28-7.02c6.89,0,11.34,2.16,15.26,6.89L113.19,242.72z"/>
		<path class="st2" d="M189.9,247.17l-9.18,45.78h-20.26l1.22-5.94c-3.38,3.38-8.51,6.62-15.8,6.62c-13.23,0-20.26-9.99-20.26-19.85
			c0-7.7,2.43-13.5,6.48-17.42c5.13-5,12.83-7.29,21.2-7.29h15.12l0.54-2.57c0.27-1.08,0.41-1.89,0.41-3.11
			c0-3.65-2.29-6.35-8.64-6.35c-6.08,0-10.8,2.7-13.5,5.81l-10.53-14.04c5.54-5.27,13.23-9.32,27.41-9.32
			c13.23,0,26.6,5.67,26.6,20.93C190.71,242.58,190.3,245.15,189.9,247.17z M155.33,263.11c-6.08,0-9.05,4.19-9.05,8.24
			c0,2.97,2.16,5.4,6.35,5.4c3.92,0,7.02-1.76,9.05-3.78c1.89-1.89,2.97-4.86,3.51-7.83l0.41-2.03H155.33z"/>
		<path class="st2" d="M263.5,247.85l-9.05,45.1h-21.07l8.78-43.89c0.27-1.22,0.41-2.57,0.41-3.65c0-4.86-3.38-6.89-6.08-6.89
			c-4.86,0-9.59,2.43-11.21,10.53l-8.78,43.89h-21.07l14.45-72.65h20.12l-1.21,6.35c4.59-4.59,11.48-7.16,17.82-7.16
			c7.16,0,17.83,4.86,17.83,19.99C264.45,242.44,264.04,245.42,263.5,247.85z"/>
		<path class="st2" d="M299.64,293.5c-1.84,0.18-3.68,0.26-5.48,0.26c-13.5,0-22.15-4.05-28.63-11.07l14.99-13.23
			c2.97,3.51,7.56,6.21,14.99,6.21c7.43,0,11.34-2.97,11.34-5.94c0-2.56-1.89-3.78-5-4.32l-9.18-1.62
			c-12.15-2.16-17.15-9.45-17.15-16.75s2.57-13.91,7.7-19.04c5.67-5.67,14.58-8.51,24.85-8.51c10.67,0,18.23,2.43,24.71,9.45
			l-14.31,12.69c-2.57-3.24-8.24-4.86-12.15-4.86c-6.89,0-9.72,2.57-9.72,5.54c0,2.03,1.35,3.38,4.46,3.92l9.18,1.62
			c4.83,0.86,8.51,2.44,11.21,4.6L299.64,293.5z"/>
		<g>
			<path class="st2" d="M340.05,327.17c-2.25-2.95-4.63-4.91-8-4.91c-2.81,0-5.47,1.12-7.58,3.37c-3.09,3.23-5.47,8.56-6.74,15.44
				c-0.56,2.95-0.98,5.76-0.98,8.84c0,5.48,1.54,9.97,7.58,9.97c3.93,0,7.16-1.82,10.39-5.06l12.07,15.87
				c-6.04,5.34-14.88,8.99-24.85,8.99c-12.49,0-27.24-7.58-27.24-26.81c0-3.93,0.42-8,1.12-11.79
				c6.18-33.69,25.13-38.61,38.33-38.61c11.23,0,18.11,4.77,22.46,10.11L340.05,327.17z"/>
			<path class="st2" d="M421.91,348.09h-43.52c-0.14,1.41-0.28,2.11-0.28,3.09c0,6.04,3.65,10.11,11.09,10.11
				c6.32,0,11.51-2.53,16.15-7.02l10.95,14.32c-7.58,7.3-18.67,11.09-29.76,11.09c-12.22,0-29.2-5.62-29.2-26.81
				c0-26.82,13.34-50.4,38.89-50.4c16,0,28.22,10.11,28.22,27.52C424.44,335.73,423.32,342.19,421.91,348.09z M394.96,320.43
				c-5.76,0-10.95,3.51-13.76,13.2h22.04c0.28-1.12,0.42-2.81,0.42-3.65C403.66,324.22,400.71,320.43,394.96,320.43z"/>
			<path class="st2" d="M499.96,331.94l-9.41,46.89h-21.9l9.13-45.63c0.28-1.26,0.42-2.67,0.42-3.79c0-5.06-3.51-7.16-6.32-7.16
				c-5.06,0-9.97,2.53-11.65,10.95l-9.13,45.63h-21.9l15.02-75.53h20.92l-1.26,6.6c4.77-4.77,11.93-7.44,18.53-7.44
				c7.44,0,18.53,5.06,18.53,20.78C500.94,326.33,500.52,329.42,499.96,331.94z"/>
			<path class="st2" d="M565.8,378.84h-21.06l1.26-6.32c-4.07,4.49-10.11,7.16-17.27,7.16c-15.72,0-19.8-12.07-19.8-19.8
				c0-5.19,0.98-11.37,2.53-18.81c3.37-16.85,6.18-26.11,11.51-31.45c5.76-5.76,12.22-7.16,18.67-7.16c6.74,0,12.5,2.39,16.15,6.88
				l6.04-30.46h21.9L565.8,378.84z M546.42,322.26c-8.14,0-10.53,6.04-13.06,18.81c-0.7,3.51-1.54,8.56-1.54,11.37
				c0,2.25,0.28,7.44,6.6,7.44c8.14,0,10.53-6.04,13.05-18.81c0.7-3.51,1.54-8.56,1.54-11.37
				C553.02,327.45,552.74,322.26,546.42,322.26z"/>
		</g>
		<g>
			
				<rect x="207.67" y="279.46" transform="matrix(0.4677 -0.8839 0.8839 0.4677 -80.6331 439.756)" class="st2" width="234.28" height="14.73"/>
		</g>
	</g>
</g>
<g id="logo_x5F_square" class="st0">
	<g class="st3">
		<g>
			<path class="st2" d="M283.57,321.85c-1.53-2.01-3.16-3.35-5.45-3.35c-1.91,0-3.73,0.77-5.16,2.3c-2.1,2.2-3.73,5.83-4.59,10.52
				c-0.38,2.01-0.67,3.92-0.67,6.02c0,3.73,1.05,6.79,5.16,6.79c2.68,0,4.88-1.24,7.08-3.44l8.22,10.81
				c-4.11,3.63-10.14,6.12-16.93,6.12c-8.51,0-18.55-5.16-18.55-18.27c0-2.68,0.29-5.45,0.77-8.03c4.21-22.95,17.12-26.3,26.11-26.3
				c7.65,0,12.34,3.25,15.3,6.88L283.57,321.85z"/>
			<path class="st2" d="M339.34,336.1h-29.64c-0.1,0.96-0.19,1.43-0.19,2.1c0,4.11,2.49,6.89,7.55,6.89c4.3,0,7.84-1.72,11-4.78
				l7.46,9.75c-5.16,4.97-12.72,7.55-20.27,7.55c-8.32,0-19.89-3.83-19.89-18.27c0-18.26,9.08-34.33,26.49-34.33
				c10.9,0,19.22,6.88,19.22,18.74C341.06,327.68,340.29,332.08,339.34,336.1z M320.98,317.26c-3.92,0-7.46,2.39-9.37,8.99h15.01
				c0.19-0.76,0.29-1.91,0.29-2.49C326.91,319.84,324.9,317.26,320.98,317.26z"/>
			<path class="st2" d="M392.51,325.1l-6.41,31.94h-14.92l6.21-31.08c0.19-0.86,0.29-1.82,0.29-2.58c0-3.44-2.39-4.88-4.3-4.88
				c-3.44,0-6.79,1.72-7.94,7.46l-6.22,31.08h-14.92l10.23-51.45h14.25l-0.86,4.49c3.25-3.25,8.13-5.07,12.62-5.07
				c5.07,0,12.62,3.44,12.62,14.15C393.18,321.28,392.89,323.38,392.51,325.1z"/>
			<path class="st2" d="M437.36,357.04h-14.34l0.86-4.3c-2.77,3.06-6.88,4.88-11.76,4.88c-10.71,0-13.48-8.22-13.48-13.48
				c0-3.54,0.67-7.75,1.72-12.81c2.29-11.48,4.21-17.79,7.84-21.42c3.92-3.92,8.32-4.88,12.72-4.88c4.59,0,8.51,1.62,11,4.69
				l4.11-20.75h14.92L437.36,357.04z M424.16,318.5c-5.55,0-7.17,4.11-8.89,12.81c-0.48,2.39-1.05,5.83-1.05,7.75
				c0,1.53,0.19,5.07,4.5,5.07c5.55,0,7.17-4.11,8.89-12.81c0.48-2.39,1.05-5.83,1.05-7.75C428.65,322.04,428.46,318.5,424.16,318.5
				z"/>
		</g>
		<g>
			<path class="st2" d="M194.31,252.28h-7.65l-4.3,21.8c-0.1,0.38-0.1,1.05-0.1,1.15c0,1.72,1.15,2.39,2.96,2.39h4.69l-2.49,12.53
				h-6.98c-8.51,0-13.39-5.26-13.39-11.95c0-1.91,0.19-3.25,0.38-4.21l4.3-21.71h-4.49l2.29-11.57h4.49l2.96-14.73h14.92
				l-2.96,14.73h7.65L194.31,252.28z"/>
			<path class="st2" d="M230.17,254.58c-0.67-0.67-1.91-2.87-4.78-2.87c-3.44,0-6.98,2.77-7.94,7.65l-6.12,30.79h-14.92l10.23-51.45
				h14.34l-0.86,4.4c2.68-3.06,7.36-4.97,12.24-4.97s8.03,1.53,10.81,4.88L230.17,254.58z"/>
			<path class="st2" d="M284.49,257.73l-6.5,32.42h-14.34l0.86-4.21c-2.39,2.39-6.02,4.69-11.19,4.69
				c-9.37,0-14.34-7.08-14.34-14.06c0-5.45,1.72-9.56,4.59-12.34c3.63-3.54,9.08-5.16,15.01-5.16h10.71l0.38-1.82
				c0.19-0.77,0.29-1.34,0.29-2.2c0-2.58-1.63-4.49-6.12-4.49c-4.3,0-7.65,1.91-9.56,4.11l-7.46-9.95c3.92-3.73,9.37-6.6,19.41-6.6
				c9.37,0,18.84,4.02,18.84,14.82C285.06,254.48,284.78,256.3,284.49,257.73z M260.01,269.02c-4.3,0-6.41,2.96-6.41,5.83
				c0,2.1,1.53,3.83,4.49,3.83c2.77,0,4.97-1.24,6.41-2.68c1.34-1.34,2.1-3.44,2.49-5.55l0.29-1.43H260.01z"/>
			<path class="st2" d="M336.61,258.21l-6.41,31.94h-14.92l6.22-31.08c0.19-0.86,0.29-1.82,0.29-2.58c0-3.44-2.39-4.88-4.3-4.88
				c-3.44,0-6.79,1.72-7.94,7.46l-6.22,31.08h-14.92l10.23-51.45h14.25l-0.86,4.49c3.25-3.25,8.13-5.07,12.62-5.07
				c5.07,0,12.62,3.44,12.62,14.15C337.28,254.38,336.99,256.49,336.61,258.21z"/>
			<path class="st2" d="M375.53,253.81c-1.82-2.29-5.83-3.44-8.61-3.44c-4.88,0-6.88,1.82-6.88,3.92c0,1.43,0.96,2.39,3.16,2.77
				l6.5,1.15c9.18,1.63,12.43,6.98,12.43,13.77c0,5.83-2.49,10.04-5.74,13.1c-4.3,4.11-11.57,5.64-18.07,5.64
				c-9.56,0-15.68-2.87-20.27-7.84l10.61-9.37c2.1,2.49,5.36,4.4,10.62,4.4c5.26,0,8.03-2.1,8.03-4.21c0-1.82-1.34-2.68-3.54-3.06
				l-6.5-1.15c-8.61-1.53-12.14-6.69-12.14-11.86c0-5.16,1.82-9.85,5.45-13.48c4.02-4.02,10.33-6.02,17.59-6.02
				c7.55,0,12.91,1.72,17.5,6.69L375.53,253.81z"/>
		</g>
		<g>
			
				<rect x="49.81" y="289.07" transform="matrix(0.4678 -0.8838 0.8838 0.4678 -69.6211 473.6888)" class="st2" width="617.43" height="11.17"/>
		</g>
		<g>
			<path class="st2" d="M504.33,485.91H108.45V90.02h395.88V485.91z M119.62,474.74h373.55V101.19H119.62V474.74z"/>
		</g>
	</g>
</g>
</svg>
