<?xml version="1.0" encoding="utf-8"?>
<!-- Generator: Adobe Illustrator 23.0.4, SVG Export Plug-In . SVG Version: 6.00 Build 0)  -->
<svg version="1.1" id="Layer_1" xmlns="http://www.w3.org/2000/svg" xmlns:xlink="http://www.w3.org/1999/xlink" x="0px" y="0px"
	 viewBox="0 0 612 792" style="enable-background:new 0 0 612 792;" xml:space="preserve">
<style type="text/css">
	.st0{fill:none;stroke:#FFFFFF;stroke-miterlimit:10;}
</style>
<g>
	<path class="st0" d="M428.19,153.75c0,0,5.84,77.2-60.34,126.51s-118.08,25.3-157,113.53S153.76,632.54,0,565.07"/>
	<path class="st0" d="M436.93,159.69c0,0,5.84,77.2-60.34,126.51s-118.08,25.3-157,113.53S162.5,638.48,8.75,571.01"/>
	<path class="st0" d="M445.68,165.62c0,0,5.84,77.2-60.34,126.51s-118.08,25.3-157,113.53S171.25,644.41,17.49,576.94"/>
	<path class="st0" d="M454.43,171.56c0,0,5.84,77.2-60.34,126.51s-118.08,25.3-157,113.53S180,650.35,26.24,582.88"/>
	<path class="st0" d="M463.17,177.5c0,0,5.84,77.2-60.34,126.51s-118.08,25.3-157,113.53S188.74,656.29,34.99,588.81"/>
	<path class="st0" d="M471.92,183.43c0,0,5.84,77.2-60.34,126.51s-118.08,25.3-157,113.53S197.49,662.22,43.73,594.75"/>
	<path class="st0" d="M480.67,189.37c0,0,5.84,77.2-60.34,126.51s-118.08,25.3-157,113.53S206.24,668.16,52.48,600.69"/>
	<path class="st0" d="M489.41,195.31c0,0,5.84,77.2-60.34,126.51s-118.08,25.3-157,113.53S214.99,674.1,61.23,606.62"/>
	<path class="st0" d="M498.16,201.24c0,0,5.84,77.2-60.34,126.51s-118.08,25.3-157,113.53S223.73,680.03,69.97,612.56"/>
	<path class="st0" d="M506.91,207.18c0,0,5.84,77.2-60.34,126.51s-118.08,25.3-157,113.53S232.48,685.97,78.72,618.5"/>
	<path class="st0" d="M515.65,213.11c0,0,5.84,77.2-60.34,126.51s-118.08,25.3-157,113.53S241.23,691.9,87.47,624.43"/>
	<path class="st0" d="M524.4,219.05c0,0,5.84,77.2-60.34,126.51s-118.08,25.3-157,113.53S249.97,697.84,96.21,630.37"/>
	<path class="st0" d="M533.15,224.99c0,0,5.84,77.2-60.34,126.51s-118.08,25.3-157,113.53S258.72,703.78,104.96,636.3"/>
	<path class="st0" d="M541.89,230.92c0,0,5.84,77.2-60.34,126.51s-118.08,25.3-157,113.53s-57.09,238.75-210.85,171.27"/>
	<path class="st0" d="M550.64,236.86c0,0,5.84,77.2-60.34,126.51s-118.08,25.3-157,113.53s-57.09,238.75-210.85,171.27"/>
	<path class="st0" d="M559.39,242.8c0,0,5.84,77.2-60.34,126.51s-118.08,25.3-157,113.53S284.96,721.58,131.2,654.11"/>
	<path class="st0" d="M568.13,248.73c0,0,5.84,77.2-60.34,126.51s-118.08,25.3-157,113.53s-57.09,238.75-210.85,171.27"/>
	<path class="st0" d="M576.88,254.67c0,0,5.84,77.2-60.34,126.51s-118.08,25.3-157,113.53S302.45,733.46,148.7,665.99"/>
	<path class="st0" d="M585.63,260.6c0,0,5.84,77.2-60.34,126.51s-118.08,25.3-157,113.53S311.2,739.39,157.44,671.92"/>
	<path class="st0" d="M594.38,266.54c0,0,5.84,77.2-60.34,126.51s-118.08,25.3-157,113.53s-57.09,238.75-210.85,171.27"/>
	<path class="st0" d="M603.12,272.48c0,0,5.84,77.2-60.34,126.51s-118.08,25.3-157,113.53s-57.09,238.75-210.85,171.27"/>
	<path class="st0" d="M611.87,278.41c0,0,5.84,77.2-60.34,126.51s-118.08,25.3-157,113.53S337.44,757.2,183.68,689.73"/>
</g>
<g>
	<path class="st0" d="M560.78,516.88c0,0-70.54,5.33-115.59-55.13S422.07,353.87,341.46,318.3s-218.14-52.16-156.49-192.65"/>
	<path class="st0" d="M555.36,524.87c0,0-70.54,5.33-115.59-55.13s-23.12-107.88-103.73-143.45s-218.14-52.16-156.49-192.65"/>
	<path class="st0" d="M549.94,532.86c0,0-70.54,5.33-115.59-55.13s-23.12-107.88-103.73-143.45s-218.14-52.16-156.49-192.65"/>
	<path class="st0" d="M544.51,540.85c0,0-70.54,5.33-115.59-55.13S405.8,377.84,325.19,342.28s-218.14-52.16-156.49-192.65"/>
	<path class="st0" d="M539.09,548.85c0,0-70.54,5.33-115.59-55.13s-23.12-107.88-103.73-143.45S101.62,298.1,163.27,157.62"/>
	<path class="st0" d="M533.66,556.84c0,0-70.54,5.33-115.59-55.13s-23.12-107.88-103.73-143.45S96.2,306.1,157.85,165.61"/>
	<path class="st0" d="M528.24,564.83c0,0-70.54,5.33-115.59-55.13s-23.12-107.88-103.73-143.45S90.77,314.09,152.42,173.6"/>
	<path class="st0" d="M522.82,572.82c0,0-70.54,5.33-115.59-55.13s-23.12-107.88-103.73-143.45S85.35,322.08,147,181.59"/>
	<path class="st0" d="M517.39,580.81c0,0-70.54,5.33-115.59-55.13S378.68,417.8,298.07,382.24S79.93,330.07,141.58,189.59"/>
	<path class="st0" d="M511.97,588.81c0,0-70.54,5.33-115.59-55.13s-23.12-107.88-103.73-143.45S74.5,338.06,136.15,197.58"/>
	<path class="st0" d="M506.54,596.8c0,0-70.54,5.33-115.59-55.13s-23.12-107.88-103.73-143.45S69.08,346.06,130.73,205.57"/>
	<path class="st0" d="M501.12,604.79c0,0-70.54,5.33-115.59-55.13S362.41,441.78,281.8,406.21S63.66,354.05,125.3,213.56"/>
	<path class="st0" d="M495.7,612.78c0,0-70.54,5.33-115.59-55.13S356.99,449.77,276.37,414.2S58.23,362.04,119.88,221.55"/>
	<path class="st0" d="M490.27,620.77c0,0-70.54,5.33-115.59-55.13s-23.12-107.88-103.73-143.45S52.81,370.03,114.46,229.54"/>
	<path class="st0" d="M484.85,628.77c0,0-70.54,5.33-115.59-55.13s-23.12-107.88-103.73-143.45S47.38,378.02,109.03,237.54"/>
	<path class="st0" d="M479.43,636.76c0,0-70.54,5.33-115.59-55.13S340.72,473.74,260.1,438.18S41.96,386.01,103.61,245.53"/>
	<path class="st0" d="M474,644.75c0,0-70.54,5.33-115.59-55.13s-23.12-107.88-103.73-143.45S36.54,394.01,98.18,253.52"/>
	<path class="st0" d="M468.58,652.74c0,0-70.54,5.33-115.59-55.13s-23.12-107.88-103.73-143.45S31.11,402,92.76,261.51"/>
	<path class="st0" d="M463.15,660.73c0,0-70.54,5.33-115.59-55.13s-23.12-107.88-103.73-143.45S25.69,409.99,87.34,269.5"/>
	<path class="st0" d="M457.73,668.72c0,0-70.54,5.33-115.59-55.13S319.02,505.71,238.4,470.15S20.26,417.98,81.91,277.5"/>
	<path class="st0" d="M452.31,676.72c0,0-70.54,5.33-115.59-55.13S313.6,513.7,232.98,478.14S14.84,425.97,76.49,285.49"/>
	<path class="st0" d="M446.88,684.71c0,0-70.54,5.33-115.59-55.13S308.17,521.7,227.56,486.13S9.42,433.97,71.07,293.48"/>
</g>
</svg>
