<?xml version="1.0" encoding="utf-8"?>
<!-- Generator: Adobe Illustrator 23.0.4, SVG Export Plug-In . SVG Version: 6.00 Build 0)  -->
<svg version="1.1" id="Layer_1" xmlns="http://www.w3.org/2000/svg" xmlns:xlink="http://www.w3.org/1999/xlink" x="0px" y="0px"
	 viewBox="0 0 600 600" style="enable-background:new 0 0 600 600;" xml:space="preserve">
<style type="text/css">
	.st0{fill:#FFFFFF;}
</style>
<g>
	<g>
		<path class="st0" d="M442.23,267.96c-2.41-7.36-4.71-14.81-7.46-22.05c-2.13-5.62-4.91-10.72-9.88-14.3
			c-10.72-7.72-24.36-5.57-35.57-0.24c-2.9,1.38-0.37,5.69,2.52,4.32c10.03-4.77,23.69-6.9,32.36,1.83
			c4.04,4.07,5.74,9.58,7.56,14.87c1.93,5.62,3.81,11.26,5.65,16.91C438.41,272.34,443.24,271.03,442.23,267.96L442.23,267.96z"/>
	</g>
</g>
<g>
	<g>
		<path class="st0" d="M335.56,236.1c-11.75-16.17-36.21-18.11-53.82-11.89c-20,7.07-32.43,24.72-43.78,41.6
			c-1.8,2.68,2.53,5.18,4.32,2.52c9.77-14.54,20.3-30.13,36.76-37.68c15.76-7.23,40.97-7.5,52.2,7.96
			C333.11,241.2,337.45,238.71,335.56,236.1L335.56,236.1z"/>
	</g>
</g>
<g>
	<g>
		<path class="st0" d="M247.43,262.22c14.36,3.26,29.23,3.33,43.59-0.05c12.15-2.86,26.62-7.84,33.64-18.9
			c1.73-2.73-2.6-5.24-4.32-2.52c-6.52,10.27-21.12,14.57-32.35,16.99c-12.95,2.79-26.33,2.59-39.23-0.34
			C245.62,256.69,244.29,261.51,247.43,262.22L247.43,262.22z"/>
	</g>
</g>
<g>
	<g>
		<path class="st0" d="M387.1,241.31c7.24,18.24,25.11,32.8,45.57,26.56c3.07-0.94,1.76-5.76-1.33-4.82
			c-17.67,5.39-33.16-7.29-39.42-23.07C390.75,237.02,385.91,238.31,387.1,241.31L387.1,241.31z"/>
	</g>
</g>
<g>
	<g>
		<path class="st0" d="M276.92,233.04c-0.54,7.21-0.41,23.41,11.21,20.38c10.79-2.81,11.39-16.1,10.85-25.02
			c-0.19-3.2-5.19-3.22-5,0c0.37,6.24,1,14.14-4.33,18.61c-8.39,7.05-8.06-9.56-7.73-13.98
			C282.16,229.83,277.16,229.85,276.92,233.04L276.92,233.04z"/>
	</g>
</g>
<g>
	<g>
		<path class="st0" d="M397.18,231.36c0.22,5.33,1.18,10.54,3.16,15.52c1.3,3.27,3.13,7.8,7.19,8.27
			c10.16,1.19,9.77-17.75,9.29-23.77c-0.25-3.19-5.26-3.21-5,0c0.19,2.44,0.53,20.73-5.12,17.36c-1.57-0.94-2.54-5.83-3.02-7.52
			c-0.91-3.23-1.36-6.51-1.5-9.86C402.05,228.16,397.05,228.14,397.18,231.36L397.18,231.36z"/>
	</g>
</g>
<g>
	<g>
		<path class="st0" d="M303.91,372.22c7.42,19.13,24.22,29.3,44.76,25.88c21.56-3.6,36.58-19.99,40.76-40.98
			c0.63-3.14-4.19-4.49-4.82-1.33c-3.64,18.27-15.48,32.36-33.94,36.82c-18.63,4.5-35.05-3.97-41.93-21.71
			C307.58,367.92,302.74,369.21,303.91,372.22L303.91,372.22z"/>
	</g>
</g>
<g>
	<g>
		<path class="st0" d="M384.33,219.98c4.77,23.82,3.24,48.57-4.2,71.69c-3.63,11.26-8.67,22.06-15.02,32.05
			c-1.37,2.16-3.72,7.21-6.24,7.21c-2.7,0-5.99-4.82-7.81-6.77c-4.71-5.02-9.17-10.26-13.44-15.67c-1.99-2.52-5.51,1.04-3.54,3.54
			c5.05,6.38,10.37,12.54,16.03,18.38c3.2,3.31,7.15,8.7,12.18,5.36c4.58-3.03,7.89-10.54,10.53-15.16
			c3.5-6.14,6.52-12.54,9.1-19.11c10.31-26.26,12.78-55.21,7.25-82.86C388.52,215.5,383.7,216.83,384.33,219.98L384.33,219.98z"/>
	</g>
</g>
<g>
	<g>
		<path class="st0" d="M448.39,184.03c1.63-9.79,5.66-19.04,7.34-28.88c1.57-9.21,2.1-18.6,0.79-27.87
			c-2.45-17.44-12.12-32.08-27.01-41.42c-14.89-9.34-32.64-13.21-49.83-15.61c-22.65-3.15-45.53-4.56-68.4-4.22
			c-26.11,0.39-52.14,3.11-77.79,7.94c-2.47,0.47-2.29,4.24,0,4.82c14.27,3.65,28.99,7.5,40.49,17.2c0.59-1.42,1.18-2.85,1.77-4.27
			c-36.42,1.66-74.45,3.63-107.09,21.66c-28.55,15.77-48.66,44.09-52.18,76.75c-2.13,19.71,2.11,39.71,11.6,57.07
			c1.54,2.82,5.86,0.3,4.32-2.52c-15.99-29.25-14.91-65.06,2.7-93.33c17.35-27.85,47.71-42.41,78.97-48.69
			c20.3-4.08,41.06-4.99,61.69-5.93c1.98-0.09,3.53-2.78,1.77-4.27c-12.23-10.31-27.5-14.59-42.7-18.48c0,1.61,0,3.21,0,4.82
			c42.4-7.99,85.86-9.89,128.78-5.48c32.75,3.36,76.52,10.13,86.55,47.57c2.72,10.17,2.62,20.98,1.02,31.33
			c-1.62,10.43-5.89,20.15-7.6,30.49C443.05,185.85,447.86,187.2,448.39,184.03L448.39,184.03z"/>
	</g>
</g>
<g>
	<g>
		<path class="st0" d="M114.89,247.31c1.83,49.23-4.01,104.39-43.98,138.42c-1.62,1.38-0.34,4.41,1.77,4.27
			c14.84-1,28.88-5.85,41.07-14.41c-1.22-0.5-2.45-1-3.67-1.49c5.18,25.96,12.31,56.3,37.45,70.16
			c27.26,15.02,59.27,4.7,81.63-14.11c2.47-2.07-1.09-5.6-3.54-3.54c-21.35,17.97-53.04,27.9-78.37,11.67
			c-21.78-13.95-27.65-41.92-32.36-65.51c-0.3-1.5-2.4-2.38-3.67-1.49c-11.45,8.04-24.57,12.78-38.54,13.72
			c0.59,1.42,1.18,2.85,1.77,4.27c40.94-34.86,47.32-91.49,45.45-141.96C119.77,244.1,114.77,244.08,114.89,247.31L114.89,247.31z"
			/>
	</g>
</g>
<g>
	<g>
		<path class="st0" d="M198.87,259.37c0.87,19.03,4.49,37.91,9.64,56.23c4.61,16.41,10.38,32.85,18.53,47.87
			c7.1,13.09,16.92,25.29,26.45,36.7c8.73,10.44,18.92,19.15,29.93,27.11c17.64,12.76,36.72,25.31,59.3,25.33c3.22,0,3.22-5,0-5
			c-20.21-0.02-37.33-10.88-53.27-22.14c-10.86-7.67-21.18-15.92-29.97-25.96c-9.35-10.68-18.64-22.47-25.91-34.67
			c-8.21-13.76-13.8-29.16-18.44-44.43c-6.01-19.8-10.31-40.32-11.25-61.02C203.72,256.16,198.72,256.14,198.87,259.37
			L198.87,259.37z"/>
	</g>
</g>
<g>
	<g>
		<path class="st0" d="M442.2,185.04c4.77,28.75,5.05,58.11,0.82,86.95c-0.46,3.15,4.36,4.51,4.82,1.33
			c4.37-29.8,4.1-59.9-0.82-89.61C446.5,180.54,441.68,181.88,442.2,185.04L442.2,185.04z"/>
	</g>
</g>
<g>
	<g>
		<path class="st0" d="M442.85,273.96c9.53,57.37-13.86,116.68-60.39,151.66c-12.33,9.27-25.95,16.71-40.41,22.06
			c-2.99,1.11-1.7,5.94,1.33,4.82c55.29-20.46,96.2-69.94,104.82-128.43c2.52-17.12,2.31-34.38-0.52-51.45
			C447.14,269.47,442.33,270.81,442.85,273.96L442.85,273.96z"/>
	</g>
</g>
<g>
	<g>
		<path class="st0" d="M260.74,239.11c-5.94-0.94-11.46-2.83-16.69-5.8c-2.8-1.59-5.33,2.73-2.52,4.32
			c5.58,3.16,11.55,5.3,17.89,6.3C262.55,244.44,263.91,239.62,260.74,239.11L260.74,239.11z"/>
	</g>
</g>
<g>
	<g>
		<path class="st0" d="M434.64,248.36c4.95,0.66,9.84,0.27,14.64-1.1c3.09-0.88,1.78-5.71-1.33-4.82c-4.4,1.26-8.78,1.53-13.31,0.92
			C431.46,242.93,431.5,247.93,434.64,248.36L434.64,248.36z"/>
	</g>
</g>
<g>
	<g>
		<path class="st0" d="M329.17,215.21c-6.61-11.61-20.06-16.19-32.86-14.74c-15.47,1.76-28.63,10.75-42.15,17.69
			c-2.86,1.47-0.34,5.79,2.52,4.32c11.41-5.86,22.38-13.22,35.02-16.17c12.26-2.85,26.49-0.28,33.15,11.42
			C326.44,220.53,330.76,218.01,329.17,215.21L329.17,215.21z"/>
	</g>
</g>
<g>
	<g>
		<path class="st0" d="M440.32,226.35c-8.8-16.66-28.66-22.8-45.53-14.68c-2.9,1.4-0.36,5.71,2.52,4.32
			c14.5-6.99,31.23-1.24,38.69,12.88C437.5,231.72,441.82,229.19,440.32,226.35L440.32,226.35z"/>
	</g>
</g>
<g>
	<g>
		<path class="st0" d="M202.63,257.21c-12.18-7.69-30.6-8.42-40.44,3.63c-4.58,5.6-5.93,12.92-6.46,19.95
			c-0.5,6.58-0.42,13.81,2.72,19.8c1.25,2.38,3.18,4.04,4.74,6.16c1.29,1.75,2.29,3.74,3.46,5.57c3.25,5.09,7,9.97,11.9,13.56
			c5.42,3.98,12.08,6.85,18.8,7.57c6.15,0.66,12.32-0.54,18.49-0.21c3.22,0.17,3.21-4.83,0-5c-4.69-0.25-9.31,0.33-13.99,0.4
			c-5.74,0.08-10.94-1.42-15.99-4.13c-9.42-5.05-12.9-13.36-19.08-21.33c-3.6-4.65-5.78-8.13-6.17-14.21
			c-0.4-6.13,0.04-12.85,2.05-18.68c5.47-15.82,25.13-16.55,37.46-8.76C202.83,263.25,205.35,258.92,202.63,257.21L202.63,257.21z"
			/>
	</g>
</g>
<g>
	<g>
		<path class="st0" d="M250.53,396.23c7.85,46.71,11.7,93.89,12.01,141.25c0.83-0.83,1.67-1.67,2.5-2.5
			c-49.71,6.43-99.06,13.78-147.7,26.07c-16.04,4.05-31.99,8.42-47.91,12.9c-3.09,0.87-1.78,5.69,1.33,4.82
			c31.71-8.91,63.57-17.4,95.91-23.76c32.56-6.41,65.48-10.77,98.38-15.02c1.33-0.17,2.51-1.01,2.5-2.5
			c-0.32-47.8-4.26-95.43-12.19-142.58C254.82,391.73,250,393.08,250.53,396.23L250.53,396.23z"/>
	</g>
</g>
<g>
	<g>
		<path class="st0" d="M368.12,438.43c1.63,18.21,3.25,36.42,4.88,54.62c0.81,9.1,1.63,18.21,2.44,27.31
			c0.56,6.29,0.61,13.15,5.9,17.5c5.61,4.61,14.26,6.4,20.92,8.91c8.64,3.25,17.27,6.5,25.91,9.75
			c17.27,6.5,34.54,13.01,51.81,19.51c19.74,7.43,39.48,14.86,59.22,22.29c3.01,1.14,4.32-3.7,1.33-4.82
			c-32.08-12.08-64.15-24.15-96.23-36.23c-16.04-6.04-32.08-12.08-48.11-18.11c-3.75-1.41-8.38-2.51-11.51-5.1
			c-3.8-3.16-3.75-8.16-4.15-12.72c-0.76-8.45-1.51-16.91-2.26-25.36c-1.71-19.18-3.43-38.37-5.14-57.55
			C372.83,435.25,367.83,435.22,368.12,438.43L368.12,438.43z"/>
	</g>
</g>
<g>
	<g>
		<path class="st0" d="M538.16,599.86c6.67,14.89,11.76,30.39,15.31,46.31c0.7,3.14,5.52,1.81,4.82-1.33
			c-3.65-16.36-8.97-32.21-15.82-47.5C541.17,594.4,536.86,596.94,538.16,599.86L538.16,599.86z"/>
	</g>
</g>
<g>
	<g>
		<path class="st0" d="M225.12,429.79c5.6,14.16,16.56,28.19,33.43,26.86c3.19-0.25,3.21-5.25,0-5c-14.52,1.15-23.78-11-28.61-23.19
			C228.78,425.51,223.94,426.8,225.12,429.79L225.12,429.79z"/>
	</g>
</g>
<g>
	<g>
		<path class="st0" d="M260.71,539.94c19.16,24.13,50.41,37.18,81.03,33.86c3.17-0.34,3.2-5.35,0-5c-29.5,3.2-59.05-9.16-77.5-32.4
			C262.24,533.89,258.73,537.45,260.71,539.94L260.71,539.94z"/>
	</g>
</g>
<g>
	<g>
		<path class="st0" d="M344.36,573.5c10.82-3.27,21.34-7.48,31.36-12.73c7.82-4.1,17.56-8.78,19.66-18.21
			c0.7-3.13-4.12-4.47-4.82-1.33c-1.97,8.81-13.28,13.23-20.57,16.86c-8.67,4.31-17.69,7.79-26.96,10.59
			C339.96,569.61,341.26,574.43,344.36,573.5L344.36,573.5z"/>
	</g>
</g>
<g>
	<g>
		<path class="st0" d="M67.93,575.09c-4.8,11.09-9.59,22.18-14.39,33.27c-1.26,2.92,3.04,5.47,4.32,2.52
			c4.8-11.09,9.59-22.18,14.39-33.27C73.51,574.69,69.21,572.14,67.93,575.09L67.93,575.09z"/>
	</g>
</g>
<g>
	<g>
		<path class="st0" d="M107.85,565.81c-9.95,14.11-17.79,29.46-23.5,45.76c-1.07,3.04,3.76,4.35,4.82,1.33
			c5.57-15.89,13.3-30.8,23-44.56C114.03,565.7,109.69,563.2,107.85,565.81L107.85,565.81z"/>
	</g>
</g>
<g>
	<g>
		<path class="st0" d="M146.65,559.28c-7.18,23.64-19.01,45.97-20.87,70.96c-0.24,3.21,4.76,3.19,5,0
			c1.82-24.46,13.67-46.49,20.7-69.63C152.4,557.52,147.58,556.2,146.65,559.28L146.65,559.28z"/>
	</g>
</g>
<g>
	<g>
		<path class="st0" d="M188.35,550.29c-10.05,26.18-21.28,52.32-26.84,79.92c-0.63,3.14,4.19,4.49,4.82,1.33
			c5.55-27.6,16.78-53.74,26.84-79.92C194.33,548.62,189.5,547.32,188.35,550.29L188.35,550.29z"/>
	</g>
</g>
<g>
	<g>
		<path class="st0" d="M231.24,544.1c-6.58,29.16-14.28,58.06-23.09,86.62c-0.95,3.08,3.87,4.4,4.82,1.33
			c8.81-28.57,16.52-57.46,23.09-86.62C236.77,542.3,231.95,540.96,231.24,544.1L231.24,544.1z"/>
	</g>
</g>
<g>
	<g>
		<path class="st0" d="M266.98,547.38c-5.08,25-10.33,49.96-15.76,74.89c-0.68,3.14,4.14,4.48,4.82,1.33
			c5.43-24.92,10.69-49.89,15.76-74.89C272.44,545.57,267.62,544.23,266.98,547.38L266.98,547.38z"/>
	</g>
</g>
<g>
	<g>
		<path class="st0" d="M300.26,569.12c0.13,21.25-9.77,40.35-19.49,58.66c-1.51,2.84,2.81,5.37,4.32,2.52
			c10.14-19.09,20.31-39.04,20.17-61.18C305.24,565.91,300.24,565.9,300.26,569.12L300.26,569.12z"/>
	</g>
</g>
<g>
	<g>
		<path class="st0" d="M321.49,575.77c2.85,14.97,1.69,30.13-3.23,44.55c-1.04,3.05,3.79,4.36,4.82,1.33
			c5.21-15.28,6.24-31.36,3.23-47.2C325.71,571.28,320.89,572.62,321.49,575.77L321.49,575.77z"/>
	</g>
</g>
<g>
	<g>
		<path class="st0" d="M342.52,573.81c2.89,17.78,3.89,35.75,3.1,53.75c-0.14,3.22,4.86,3.21,5,0c0.81-18.45-0.32-36.85-3.28-55.08
			C346.82,569.32,342,570.66,342.52,573.81L342.52,573.81z"/>
	</g>
</g>
<g>
	<g>
		<path class="st0" d="M370.35,564.29c6.89,16.86,11.51,34.5,13.62,52.6c0.37,3.16,5.37,3.2,5,0c-2.16-18.57-6.73-36.62-13.8-53.93
			C373.97,560.03,369.13,561.31,370.35,564.29L370.35,564.29z"/>
	</g>
</g>
<g>
	<g>
		<path class="st0" d="M387.8,554.84c17.35,20.25,30.34,43.79,38.27,69.23c0.95,3.06,5.78,1.75,4.82-1.33
			c-8.2-26.3-21.64-50.52-39.56-71.44C389.24,548.86,385.71,552.41,387.8,554.84L387.8,554.84z"/>
	</g>
</g>
<g>
	<g>
		<path class="st0" d="M430.03,557.31c15.12,24.99,30.75,51.13,33.45,80.86c0.29,3.18,5.29,3.21,5,0
			c-2.79-30.7-18.5-57.54-34.14-83.38C432.69,552.04,428.36,554.55,430.03,557.31L430.03,557.31z"/>
	</g>
</g>
<g>
	<g>
		<path class="st0" d="M476.34,574.65c8.54,19.67,13.07,40.75,13.49,62.18c0.06,3.21,5.06,3.22,5,0
			c-0.44-22.36-5.27-44.19-14.17-64.7C479.38,569.18,475.07,571.73,476.34,574.65L476.34,574.65z"/>
	</g>
</g>
<g>
	<g>
		<path class="st0" d="M508.98,586.22c7.17,13.15,10.31,27.71,9.32,42.64c-0.21,3.21,4.79,3.2,5,0c1.05-15.78-2.43-31.29-10-45.17
			C511.76,580.87,507.44,583.39,508.98,586.22L508.98,586.22z"/>
	</g>
</g>
<g>
	<g>
		<path class="st0" d="M361.51,126.44c13.44,29.39,44.15,48.95,76.42,48.99c3.22,0,3.22-5,0-5c-30.66-0.03-59.37-18.67-72.1-46.51
			C364.49,120.99,360.18,123.53,361.51,126.44L361.51,126.44z"/>
	</g>
</g>
<g>
	<g>
		<path class="st0" d="M359.04,125.22c-32.55,43.45-81.71,73.13-135.21,82.08c-3.17,0.53-1.82,5.35,1.33,4.82
			c54.85-9.19,104.88-39.9,138.2-84.38C365.29,125.17,360.95,122.67,359.04,125.22L359.04,125.22z"/>
	</g>
</g>
</svg>
